<mxfile host="app.diagrams.net" modified="2023-07-11T09:16:36.299Z" agent="Mozilla/5.0 (Windows NT 10.0; Win64; x64) AppleWebKit/537.36 (KHTML, like Gecko) Chrome/114.0.0.0 Safari/537.36 OPR/100.0.0.0 (Edition Yx 05)" etag="ZC4u5ve3Yr5IuKwBUYkK" version="21.6.1" type="device" pages="2">
  <diagram id="FZimzOWbiY0pmrnXrLaN" name="DFD контекстная">
    <mxGraphModel dx="2186" dy="1904" grid="1" gridSize="10" guides="1" tooltips="1" connect="1" arrows="1" fold="1" page="1" pageScale="1" pageWidth="827" pageHeight="1169" math="0" shadow="0">
      <root>
        <mxCell id="0" />
        <mxCell id="1" parent="0" />
        <mxCell id="komNeLyyzliTDDAAMzvB-7" value="&lt;font style=&quot;font-size: 18px;&quot;&gt;Элементы для построения&amp;nbsp;&lt;span style=&quot;caret-color: rgb(0, 0, 0); text-align: start; text-size-adjust: auto;&quot; data-reactroot=&quot;&quot; class=&quot;notion-enable-hover&quot; data-token-index=&quot;0&quot;&gt;контекстной модели потоков данных&lt;/span&gt;&lt;/font&gt;" style="rounded=1;whiteSpace=wrap;html=1;verticalAlign=top;" parent="1" vertex="1">
          <mxGeometry x="10" y="-1120" width="470" height="260" as="geometry" />
        </mxCell>
        <mxCell id="5UiAa6i34-nmtpAbNAzd-2" style="edgeStyle=orthogonalEdgeStyle;rounded=0;orthogonalLoop=1;jettySize=auto;html=1;exitX=0;exitY=0.25;exitDx=0;exitDy=0;entryX=1;entryY=0.25;entryDx=0;entryDy=0;" parent="1" source="komNeLyyzliTDDAAMzvB-3" target="rhUK0AfXt017CsrgmApv-2" edge="1">
          <mxGeometry relative="1" as="geometry" />
        </mxCell>
        <mxCell id="5UiAa6i34-nmtpAbNAzd-3" style="edgeStyle=orthogonalEdgeStyle;rounded=0;orthogonalLoop=1;jettySize=auto;html=1;exitX=0;exitY=0.75;exitDx=0;exitDy=0;entryX=1;entryY=0.75;entryDx=0;entryDy=0;endArrow=classic;endFill=1;startArrow=none;startFill=0;" parent="1" source="komNeLyyzliTDDAAMzvB-3" target="rhUK0AfXt017CsrgmApv-2" edge="1">
          <mxGeometry relative="1" as="geometry" />
        </mxCell>
        <mxCell id="komNeLyyzliTDDAAMzvB-3" value="Врач" style="html=1;dashed=0;whitespace=wrap;" parent="1" vertex="1">
          <mxGeometry x="540" y="-655" width="100" height="80" as="geometry" />
        </mxCell>
        <mxCell id="komNeLyyzliTDDAAMzvB-4" value="Лаборатория" style="html=1;dashed=0;whitespace=wrap;" parent="1" vertex="1">
          <mxGeometry x="80" y="-490" width="320" height="50" as="geometry" />
        </mxCell>
        <mxCell id="komNeLyyzliTDDAAMzvB-5" value="Пациент" style="html=1;dashed=0;whitespace=wrap;" parent="1" vertex="1">
          <mxGeometry x="80" y="-830" width="320" height="50" as="geometry" />
        </mxCell>
        <mxCell id="komNeLyyzliTDDAAMzvB-8" value="&lt;h1&gt;&lt;font style=&quot;font-size: 40px;&quot;&gt;Задание&lt;/font&gt;&lt;/h1&gt;&lt;font style=&quot;font-size: 20px;&quot;&gt;Составьте контекстную модель потоков данных из представленных элементов&lt;br&gt;&lt;/font&gt;&lt;p style=&quot;font-size: 20px;&quot;&gt;&lt;font style=&quot;font-size: 20px;&quot;&gt;Как выполнить задание:&lt;/font&gt;&lt;/p&gt;&lt;p style=&quot;font-size: 20px;&quot;&gt;&lt;font style=&quot;font-size: 20px;&quot;&gt;1. Просмотрите MVP, которое вы составили, для изменений которые будут производиться в рамках этих доработок вам необходимо составить контекстную модель потоков данных.&amp;nbsp;&lt;/font&gt;&lt;/p&gt;&lt;p style=&quot;font-size: 20px;&quot;&gt;2. Просмотрите доступные элементы (процесс и внешние сущности) для составления модели.&lt;span style=&quot;background-color: initial;&quot;&gt;&amp;nbsp;Корректно расставьте и соедините элементы потоками данных и подпишите получившиеся потоки.&lt;/span&gt;&lt;/p&gt;&lt;p style=&quot;font-size: 20px;&quot;&gt;&lt;font style=&quot;font-size: 20px;&quot;&gt;3. Если вам не хватает информации в задании, то вы можете ее самостоятельно добавить в виде допущения&lt;/font&gt;&lt;/p&gt;&lt;p style=&quot;font-size: 20px;&quot;&gt;&lt;i&gt;Помните, что вы всегда можете оставить дополнительную информацию со своими размышлениями ревьюеру в виде пометок. Просто возьмите одну из карточек ниже.&amp;nbsp;&lt;/i&gt;&lt;/p&gt;&lt;p style=&quot;font-size: 20px;&quot;&gt;&lt;font style=&quot;font-size: 20px;&quot;&gt;4. Когда модель потоков данных будет готова, переходите к вкладке №2 для составления логических моделей потоков данных 1 уровня.&lt;/font&gt;&lt;/p&gt;" style="text;html=1;strokeColor=#82b366;fillColor=#d5e8d4;spacing=5;spacingTop=-20;whiteSpace=wrap;overflow=hidden;rounded=0;fontSize=16;" parent="1" vertex="1">
          <mxGeometry x="-770" y="-1120" width="740" height="610" as="geometry" />
        </mxCell>
        <mxCell id="komNeLyyzliTDDAAMzvB-9" value="&lt;h1 style=&quot;font-size: 20px;&quot;&gt;&lt;font style=&quot;font-size: 20px;&quot;&gt;Заметка для ревьюера&lt;/font&gt;&lt;/h1&gt;&lt;p style=&quot;font-size: 20px;&quot;&gt;&lt;font style=&quot;font-size: 20px;&quot;&gt;Текст заметки&lt;/font&gt;&lt;/p&gt;" style="text;html=1;strokeColor=#d6b656;fillColor=#fff2cc;spacing=5;spacingTop=-20;whiteSpace=wrap;overflow=hidden;rounded=0;fontSize=20;" parent="1" vertex="1">
          <mxGeometry x="-770" y="-450" width="370" height="170" as="geometry" />
        </mxCell>
        <mxCell id="komNeLyyzliTDDAAMzvB-10" value="&lt;h1 style=&quot;font-size: 20px;&quot;&gt;&lt;font style=&quot;font-size: 20px;&quot;&gt;Заметка для ревьюера&lt;/font&gt;&lt;/h1&gt;&lt;p style=&quot;font-size: 20px;&quot;&gt;&lt;font style=&quot;font-size: 20px;&quot;&gt;Текст заметки&lt;/font&gt;&lt;/p&gt;" style="text;html=1;strokeColor=#d6b656;fillColor=#fff2cc;spacing=5;spacingTop=-20;whiteSpace=wrap;overflow=hidden;rounded=0;fontSize=20;" parent="1" vertex="1">
          <mxGeometry x="-760" y="-440" width="370" height="170" as="geometry" />
        </mxCell>
        <mxCell id="komNeLyyzliTDDAAMzvB-11" value="&lt;h1 style=&quot;font-size: 20px;&quot;&gt;&lt;font style=&quot;font-size: 20px;&quot;&gt;Заметка для ревьюера&lt;/font&gt;&lt;/h1&gt;&lt;p style=&quot;font-size: 20px;&quot;&gt;&lt;font style=&quot;font-size: 20px;&quot;&gt;Текст заметки&lt;/font&gt;&lt;/p&gt;" style="text;html=1;strokeColor=#d6b656;fillColor=#fff2cc;spacing=5;spacingTop=-20;whiteSpace=wrap;overflow=hidden;rounded=0;fontSize=20;" parent="1" vertex="1">
          <mxGeometry x="-750" y="-430" width="370" height="170" as="geometry" />
        </mxCell>
        <mxCell id="komNeLyyzliTDDAAMzvB-12" value="&lt;h1 style=&quot;font-size: 20px;&quot;&gt;&lt;font style=&quot;font-size: 20px;&quot;&gt;Заметка для ревьюера&lt;/font&gt;&lt;/h1&gt;&lt;p style=&quot;font-size: 20px;&quot;&gt;&lt;font style=&quot;font-size: 20px;&quot;&gt;Текст заметки&lt;/font&gt;&lt;/p&gt;" style="text;html=1;strokeColor=#d6b656;fillColor=#fff2cc;spacing=5;spacingTop=-20;whiteSpace=wrap;overflow=hidden;rounded=0;fontSize=20;" parent="1" vertex="1">
          <mxGeometry x="-740" y="-420" width="370" height="170" as="geometry" />
        </mxCell>
        <mxCell id="komNeLyyzliTDDAAMzvB-13" value="&lt;h1 style=&quot;font-size: 20px;&quot;&gt;&lt;font style=&quot;font-size: 20px;&quot;&gt;Заметка для ревьюера&lt;/font&gt;&lt;/h1&gt;&lt;p style=&quot;font-size: 20px;&quot;&gt;&lt;font style=&quot;font-size: 20px;&quot;&gt;Текст заметки&lt;/font&gt;&lt;/p&gt;" style="text;html=1;strokeColor=#d6b656;fillColor=#fff2cc;spacing=5;spacingTop=-20;whiteSpace=wrap;overflow=hidden;rounded=0;fontSize=20;" parent="1" vertex="1">
          <mxGeometry x="-730" y="-410" width="370" height="170" as="geometry" />
        </mxCell>
        <mxCell id="5UiAa6i34-nmtpAbNAzd-6" style="edgeStyle=orthogonalEdgeStyle;rounded=0;orthogonalLoop=1;jettySize=auto;html=1;exitX=0;exitY=0;exitDx=0;exitDy=0;entryX=0;entryY=1;entryDx=0;entryDy=0;startArrow=classic;startFill=1;endArrow=none;endFill=0;" parent="1" source="rhUK0AfXt017CsrgmApv-1" target="komNeLyyzliTDDAAMzvB-5" edge="1">
          <mxGeometry relative="1" as="geometry" />
        </mxCell>
        <mxCell id="yztiGZCTDV8_Pqn9JOK7-1" value="данные&amp;nbsp;&lt;br style=&quot;border-color: var(--border-color);&quot;&gt;пациента" style="edgeLabel;html=1;align=center;verticalAlign=middle;resizable=0;points=[];" parent="5UiAa6i34-nmtpAbNAzd-6" vertex="1" connectable="0">
          <mxGeometry x="0.1509" relative="1" as="geometry">
            <mxPoint x="-30" as="offset" />
          </mxGeometry>
        </mxCell>
        <mxCell id="5UiAa6i34-nmtpAbNAzd-7" style="edgeStyle=orthogonalEdgeStyle;rounded=0;orthogonalLoop=1;jettySize=auto;html=1;entryX=0.719;entryY=1.016;entryDx=0;entryDy=0;entryPerimeter=0;exitX=0.719;exitY=0.004;exitDx=0;exitDy=0;exitPerimeter=0;" parent="1" source="rhUK0AfXt017CsrgmApv-1" target="komNeLyyzliTDDAAMzvB-5" edge="1">
          <mxGeometry relative="1" as="geometry">
            <mxPoint x="280" y="-690" as="sourcePoint" />
            <Array as="points" />
          </mxGeometry>
        </mxCell>
        <mxCell id="rhUK0AfXt017CsrgmApv-1" value="0" style="swimlane;childLayout=stackLayout;horizontal=1;startSize=30;horizontalStack=0;rounded=1;fontSize=14;fontStyle=0;strokeWidth=1;resizeParent=0;resizeLast=1;shadow=0;dashed=0;align=center;fillColor=#FFFFFF;" parent="1" vertex="1">
          <mxGeometry x="80" y="-685" width="320" height="110" as="geometry" />
        </mxCell>
        <mxCell id="rhUK0AfXt017CsrgmApv-2" value="Приложение &quot;Вита&quot;" style="align=center;strokeColor=none;fillColor=none;spacingLeft=4;fontSize=12;verticalAlign=middle;resizable=0;rotatable=0;part=1;" parent="rhUK0AfXt017CsrgmApv-1" vertex="1">
          <mxGeometry y="30" width="320" height="80" as="geometry" />
        </mxCell>
        <mxCell id="5UiAa6i34-nmtpAbNAzd-4" style="edgeStyle=orthogonalEdgeStyle;rounded=0;orthogonalLoop=1;jettySize=auto;html=1;exitX=0.75;exitY=1;exitDx=0;exitDy=0;entryX=0.75;entryY=0;entryDx=0;entryDy=0;endArrow=none;endFill=0;startArrow=classic;startFill=1;" parent="1" source="rhUK0AfXt017CsrgmApv-2" target="komNeLyyzliTDDAAMzvB-4" edge="1">
          <mxGeometry relative="1" as="geometry" />
        </mxCell>
        <mxCell id="5UiAa6i34-nmtpAbNAzd-5" style="edgeStyle=orthogonalEdgeStyle;rounded=0;orthogonalLoop=1;jettySize=auto;html=1;exitX=0.25;exitY=1;exitDx=0;exitDy=0;entryX=0.25;entryY=0;entryDx=0;entryDy=0;startArrow=classic;startFill=1;endArrow=none;endFill=0;" parent="1" source="rhUK0AfXt017CsrgmApv-2" target="komNeLyyzliTDDAAMzvB-4" edge="1">
          <mxGeometry relative="1" as="geometry" />
        </mxCell>
        <mxCell id="4C3Xw3M5E_rxSA2_JD7l-1" value="назначение&lt;br style=&quot;border-color: var(--border-color);&quot;&gt;на обследование" style="edgeLabel;html=1;align=center;verticalAlign=middle;resizable=0;points=[];" parent="1" vertex="1" connectable="0">
          <mxGeometry x="309.9999999999998" y="-739.9951724137931" as="geometry" />
        </mxCell>
        <mxCell id="QDvDDxwoMI50mD7SYZni-1" value="назначение&amp;nbsp;&lt;br&gt;на медикаментозное&lt;br&gt;лечение" style="edgeLabel;html=1;align=center;verticalAlign=middle;resizable=0;points=[];" parent="1" vertex="1" connectable="0">
          <mxGeometry x="459.99619047619035" y="-580" as="geometry">
            <mxPoint x="13" y="8" as="offset" />
          </mxGeometry>
        </mxCell>
        <mxCell id="4FJCJqjWnsjJNMsJOvv6-1" value="назначение&lt;br&gt;на обследование" style="edgeLabel;html=1;align=center;verticalAlign=middle;resizable=0;points=[];" parent="1" vertex="1" connectable="0">
          <mxGeometry x="370.0027586206893" y="-530" as="geometry">
            <mxPoint x="103" y="-123" as="offset" />
          </mxGeometry>
        </mxCell>
        <mxCell id="zxtGXvCYWxITWLQLMkzj-1" value="результаты&lt;br&gt;анализов" style="edgeLabel;html=1;align=center;verticalAlign=middle;resizable=0;points=[];" parent="1" vertex="1" connectable="0">
          <mxGeometry x="359.9999999999998" y="-530.0031034482759" as="geometry" />
        </mxCell>
        <mxCell id="L6FBANYmvhba1uNkg4qb-1" value="статус&amp;nbsp;&lt;br&gt;анализов" style="edgeLabel;html=1;align=center;verticalAlign=middle;resizable=0;points=[];" parent="1" vertex="1" connectable="0">
          <mxGeometry x="149.99999999999977" y="-447.24137931034466" as="geometry">
            <mxPoint x="86" y="-84" as="offset" />
          </mxGeometry>
        </mxCell>
        <mxCell id="L6FBANYmvhba1uNkg4qb-2" style="edgeStyle=orthogonalEdgeStyle;rounded=0;orthogonalLoop=1;jettySize=auto;html=1;entryX=0.1;entryY=0.002;entryDx=0;entryDy=0;startArrow=classic;startFill=1;endArrow=none;endFill=0;entryPerimeter=0;" parent="1" target="rhUK0AfXt017CsrgmApv-1" edge="1">
          <mxGeometry relative="1" as="geometry">
            <mxPoint x="112" y="-780" as="sourcePoint" />
            <mxPoint x="180" y="-685" as="targetPoint" />
            <Array as="points">
              <mxPoint x="112" y="-780" />
            </Array>
          </mxGeometry>
        </mxCell>
        <mxCell id="L6FBANYmvhba1uNkg4qb-3" value="статус&amp;nbsp;&lt;br style=&quot;border-color: var(--border-color);&quot;&gt;анализов" style="edgeLabel;html=1;align=center;verticalAlign=middle;resizable=0;points=[];" parent="L6FBANYmvhba1uNkg4qb-2" connectable="0" vertex="1">
          <mxGeometry x="-0.0733" y="-1" relative="1" as="geometry">
            <mxPoint y="-5" as="offset" />
          </mxGeometry>
        </mxCell>
        <mxCell id="L6FBANYmvhba1uNkg4qb-4" value="" style="endArrow=classic;html=1;rounded=0;entryX=0.264;entryY=1.01;entryDx=0;entryDy=0;exitX=0.265;exitY=-0.003;exitDx=0;exitDy=0;exitPerimeter=0;entryPerimeter=0;" parent="1" source="rhUK0AfXt017CsrgmApv-1" target="komNeLyyzliTDDAAMzvB-5" edge="1">
          <mxGeometry width="50" height="50" relative="1" as="geometry">
            <mxPoint x="280" y="-680" as="sourcePoint" />
            <mxPoint x="330" y="-730" as="targetPoint" />
          </mxGeometry>
        </mxCell>
        <mxCell id="L6FBANYmvhba1uNkg4qb-5" value="результаты&lt;br style=&quot;border-color: var(--border-color);&quot;&gt;анализов" style="edgeLabel;html=1;align=center;verticalAlign=middle;resizable=0;points=[];" parent="L6FBANYmvhba1uNkg4qb-4" vertex="1" connectable="0">
          <mxGeometry x="0.0763" y="1" relative="1" as="geometry">
            <mxPoint x="-2" y="-5" as="offset" />
          </mxGeometry>
        </mxCell>
        <mxCell id="L6FBANYmvhba1uNkg4qb-6" value="" style="endArrow=classic;html=1;rounded=0;entryX=1;entryY=1;entryDx=0;entryDy=0;exitX=1;exitY=0;exitDx=0;exitDy=0;" parent="1" source="rhUK0AfXt017CsrgmApv-1" target="komNeLyyzliTDDAAMzvB-5" edge="1">
          <mxGeometry width="50" height="50" relative="1" as="geometry">
            <mxPoint x="350" y="-700" as="sourcePoint" />
            <mxPoint x="400" y="-750" as="targetPoint" />
          </mxGeometry>
        </mxCell>
        <mxCell id="L6FBANYmvhba1uNkg4qb-10" value="назначение&amp;nbsp;на &lt;br&gt;медикаментозное&lt;br style=&quot;border-color: var(--border-color);&quot;&gt;лечение" style="edgeLabel;html=1;align=center;verticalAlign=middle;resizable=0;points=[];" parent="L6FBANYmvhba1uNkg4qb-6" vertex="1" connectable="0">
          <mxGeometry x="0.2485" y="-1" relative="1" as="geometry">
            <mxPoint y="4" as="offset" />
          </mxGeometry>
        </mxCell>
        <mxCell id="Kh1CbkRhkAGDhkwCrPzZ-5" value="" style="endArrow=classic;html=1;rounded=0;entryX=0.462;entryY=0.978;entryDx=0;entryDy=0;exitX=0.464;exitY=0.004;exitDx=0;exitDy=0;entryPerimeter=0;exitPerimeter=0;" parent="1" source="rhUK0AfXt017CsrgmApv-1" target="komNeLyyzliTDDAAMzvB-5" edge="1">
          <mxGeometry width="50" height="50" relative="1" as="geometry">
            <mxPoint x="240" y="-690" as="sourcePoint" />
            <mxPoint x="160" y="-750" as="targetPoint" />
          </mxGeometry>
        </mxCell>
        <mxCell id="Kh1CbkRhkAGDhkwCrPzZ-6" value="расписание&lt;br&gt;процедурного&lt;br&gt;кабинета" style="edgeLabel;html=1;align=center;verticalAlign=middle;resizable=0;points=[];" parent="Kh1CbkRhkAGDhkwCrPzZ-5" connectable="0" vertex="1">
          <mxGeometry x="0.1469" y="1" relative="1" as="geometry">
            <mxPoint x="1" as="offset" />
          </mxGeometry>
        </mxCell>
      </root>
    </mxGraphModel>
  </diagram>
  <diagram id="5hfhekeH1kYWlCb4wukP" name="DFD логические">
    <mxGraphModel dx="3298" dy="2505" grid="1" gridSize="10" guides="1" tooltips="1" connect="1" arrows="1" fold="1" page="1" pageScale="1" pageWidth="827" pageHeight="1169" math="0" shadow="0">
      <root>
        <mxCell id="0" />
        <mxCell id="1" parent="0" />
        <mxCell id="a9Sl7O8uez9xCAdCzFx1-1" value="&lt;font style=&quot;font-size: 20px;&quot;&gt;Элементы для построения л&lt;span style=&quot;caret-color: rgb(0, 0, 0); text-align: start; text-size-adjust: auto;&quot; data-reactroot=&quot;&quot; class=&quot;notion-enable-hover&quot; data-token-index=&quot;0&quot;&gt;огических моделей потоков данных уровня 1&lt;/span&gt;&lt;/font&gt;" style="rounded=1;whiteSpace=wrap;html=1;verticalAlign=top;" parent="1" vertex="1">
          <mxGeometry x="10" y="-1120" width="800" height="320" as="geometry" />
        </mxCell>
        <mxCell id="a9Sl7O8uez9xCAdCzFx1-50" value="Пациент" style="html=1;fontSize=11;" parent="1" vertex="1">
          <mxGeometry x="20" y="-770" width="290" height="50" as="geometry" />
        </mxCell>
        <mxCell id="a9Sl7O8uez9xCAdCzFx1-51" value="Врач" style="html=1;fontSize=11;" parent="1" vertex="1">
          <mxGeometry x="540" y="-570" width="100" height="40" as="geometry" />
        </mxCell>
        <mxCell id="a9Sl7O8uez9xCAdCzFx1-52" value="Пациент" style="html=1;fontSize=11;" parent="1" vertex="1">
          <mxGeometry x="960" y="-750" width="160" height="50" as="geometry" />
        </mxCell>
        <mxCell id="a9Sl7O8uez9xCAdCzFx1-53" value="Врач" style="html=1;fontSize=11;" parent="1" vertex="1">
          <mxGeometry x="960" y="-380" width="160" height="50" as="geometry" />
        </mxCell>
        <mxCell id="a9Sl7O8uez9xCAdCzFx1-55" value="Лаборатория" style="html=1;fontSize=11;" parent="1" vertex="1">
          <mxGeometry x="20" y="-400" width="290" height="50" as="geometry" />
        </mxCell>
        <mxCell id="JQqJk8gsrpiBfC45wu2H-1" value="&lt;h1&gt;&lt;font style=&quot;font-size: 40px;&quot;&gt;Задание&lt;/font&gt;&lt;/h1&gt;&lt;font style=&quot;font-size: 20px;&quot;&gt;Составьте две логические модели потоков данных 1 уровня из представленных элементов. По одной для каждого процесса.&lt;br&gt;&lt;/font&gt;&lt;p style=&quot;font-size: 20px;&quot;&gt;&lt;font style=&quot;font-size: 20px;&quot;&gt;Как выполнить задание:&lt;/font&gt;&lt;/p&gt;&lt;span style=&quot;font-size: 20px;&quot;&gt;1. Просмотрите MVP, которое вы составили, для изменений которые будут производиться в рамках этих доработок вам необходимо составить две логические модели потоков данных.&amp;nbsp;&lt;/span&gt;&lt;p style=&quot;font-size: 20px;&quot;&gt;2. Просмотрите доступные элементы (процесс и внешние сущности) для составления модели.&lt;span style=&quot;background-color: initial;&quot;&gt;&amp;nbsp;Корректно расставьте, соедините элементы потоками данных и подпишите получившиеся потоки.&amp;nbsp;&lt;/span&gt;&lt;/p&gt;&lt;p style=&quot;font-size: 20px;&quot;&gt;3. Добавьте в модели потоков данных к каждому процессу недостающие хранилища данных.&lt;/p&gt;&lt;p style=&quot;font-size: 20px;&quot;&gt;&lt;font style=&quot;font-size: 20px;&quot;&gt;4. Если вам не хватает информации в задании, то вы можете ее самостоятельно добавить в виде допущения&lt;/font&gt;&lt;/p&gt;&lt;p style=&quot;font-size: 20px;&quot;&gt;&lt;i&gt;Помните, что вы всегда можете оставить дополнительную информацию со своими размышлениями ревьюеру в виде пометок. Просто возьмите одну из карточек ниже.&amp;nbsp;&lt;/i&gt;&lt;/p&gt;&lt;p style=&quot;font-size: 20px;&quot;&gt;&lt;font style=&quot;font-size: 20px;&quot;&gt;5. Когда модели потоков данных будут готовы сохраните получившийся файл в формате .drawio, он понадобиться вам в части &quot;Ревью&quot;&lt;/font&gt;&lt;/p&gt;" style="text;html=1;strokeColor=#82b366;fillColor=#d5e8d4;spacing=5;spacingTop=-20;whiteSpace=wrap;overflow=hidden;rounded=0;fontSize=16;" parent="1" vertex="1">
          <mxGeometry x="-770" y="-1120" width="740" height="660" as="geometry" />
        </mxCell>
        <mxCell id="TyFQIvKSNbhwDLeUT2OL-1" value="1" style="swimlane;childLayout=stackLayout;horizontal=1;startSize=30;horizontalStack=0;rounded=1;fontSize=14;fontStyle=0;strokeWidth=1;resizeParent=0;resizeLast=1;shadow=0;dashed=0;align=center;fillColor=#FFFFFF;" parent="1" vertex="1">
          <mxGeometry x="20" y="-610" width="290" height="110" as="geometry" />
        </mxCell>
        <mxCell id="TyFQIvKSNbhwDLeUT2OL-2" value="Пройти обследование" style="align=center;strokeColor=none;fillColor=none;spacingLeft=4;fontSize=12;verticalAlign=middle;resizable=0;rotatable=0;part=1;" parent="TyFQIvKSNbhwDLeUT2OL-1" vertex="1">
          <mxGeometry y="30" width="290" height="80" as="geometry" />
        </mxCell>
        <mxCell id="jfRJq12P8PdNFq7zpwv4-1" value="2" style="swimlane;childLayout=stackLayout;horizontal=1;startSize=30;horizontalStack=0;rounded=1;fontSize=14;fontStyle=0;strokeWidth=1;resizeParent=0;resizeLast=1;shadow=0;dashed=0;align=center;fillColor=#FFFFFF;" parent="1" vertex="1">
          <mxGeometry x="960" y="-590" width="160" height="110" as="geometry" />
        </mxCell>
        <mxCell id="jfRJq12P8PdNFq7zpwv4-2" value="Пройти&#xa;медикаментозное &#xa;лечение" style="align=center;strokeColor=none;fillColor=none;spacingLeft=4;fontSize=12;verticalAlign=middle;resizable=0;rotatable=0;part=1;" parent="jfRJq12P8PdNFq7zpwv4-1" vertex="1">
          <mxGeometry y="30" width="160" height="80" as="geometry" />
        </mxCell>
        <mxCell id="LvPPWwWfilWsMwxd9Nst-1" value="данные&amp;nbsp;&lt;br&gt;пациента" style="endArrow=classic;html=1;rounded=0;exitX=0.03;exitY=1;exitDx=0;exitDy=0;entryX=0.031;entryY=-0.006;entryDx=0;entryDy=0;exitPerimeter=0;entryPerimeter=0;" parent="1" source="a9Sl7O8uez9xCAdCzFx1-50" target="TyFQIvKSNbhwDLeUT2OL-1" edge="1">
          <mxGeometry width="50" height="50" relative="1" as="geometry">
            <mxPoint x="250" y="-670" as="sourcePoint" />
            <mxPoint x="60" y="-690" as="targetPoint" />
          </mxGeometry>
        </mxCell>
        <mxCell id="LvPPWwWfilWsMwxd9Nst-3" value="" style="endArrow=classic;html=1;rounded=0;exitX=0.964;exitY=0.007;exitDx=0;exitDy=0;entryX=0.966;entryY=1.017;entryDx=0;entryDy=0;entryPerimeter=0;exitPerimeter=0;" parent="1" source="TyFQIvKSNbhwDLeUT2OL-1" target="a9Sl7O8uez9xCAdCzFx1-50" edge="1">
          <mxGeometry width="50" height="50" relative="1" as="geometry">
            <mxPoint x="220" y="-640" as="sourcePoint" />
            <mxPoint x="270" y="-690" as="targetPoint" />
          </mxGeometry>
        </mxCell>
        <mxCell id="wJeVf1HVawVVO51wIr1y-11" value="расписание&lt;br&gt;процедурного&lt;br&gt;кабинета" style="edgeLabel;html=1;align=center;verticalAlign=middle;resizable=0;points=[];" parent="LvPPWwWfilWsMwxd9Nst-3" connectable="0" vertex="1">
          <mxGeometry x="0.0043" relative="1" as="geometry">
            <mxPoint y="-2" as="offset" />
          </mxGeometry>
        </mxCell>
        <mxCell id="LvPPWwWfilWsMwxd9Nst-5" value="" style="endArrow=classic;html=1;rounded=0;exitX=1;exitY=0.25;exitDx=0;exitDy=0;entryX=0;entryY=0.25;entryDx=0;entryDy=0;" parent="1" source="TyFQIvKSNbhwDLeUT2OL-2" target="a9Sl7O8uez9xCAdCzFx1-51" edge="1">
          <mxGeometry width="50" height="50" relative="1" as="geometry">
            <mxPoint x="270" y="-450" as="sourcePoint" />
            <mxPoint x="320" y="-500" as="targetPoint" />
          </mxGeometry>
        </mxCell>
        <mxCell id="LvPPWwWfilWsMwxd9Nst-6" value="" style="endArrow=classic;html=1;rounded=0;entryX=1;entryY=0.5;entryDx=0;entryDy=0;exitX=0;exitY=0.75;exitDx=0;exitDy=0;" parent="1" source="a9Sl7O8uez9xCAdCzFx1-51" target="TyFQIvKSNbhwDLeUT2OL-2" edge="1">
          <mxGeometry width="50" height="50" relative="1" as="geometry">
            <mxPoint x="270" y="-450" as="sourcePoint" />
            <mxPoint x="320" y="-500" as="targetPoint" />
          </mxGeometry>
        </mxCell>
        <mxCell id="LvPPWwWfilWsMwxd9Nst-7" value="назначение&lt;br&gt;на обследование" style="edgeLabel;html=1;align=center;verticalAlign=middle;resizable=0;points=[];" parent="LvPPWwWfilWsMwxd9Nst-6" vertex="1" connectable="0">
          <mxGeometry x="-0.0961" y="-1" relative="1" as="geometry">
            <mxPoint x="54" y="21" as="offset" />
          </mxGeometry>
        </mxCell>
        <mxCell id="LvPPWwWfilWsMwxd9Nst-8" value="запрос&lt;br&gt;на обследование" style="edgeLabel;html=1;align=center;verticalAlign=middle;resizable=0;points=[];" parent="1" vertex="1" connectable="0">
          <mxGeometry x="489.99619047619035" y="-584" as="geometry" />
        </mxCell>
        <mxCell id="LvPPWwWfilWsMwxd9Nst-11" value="" style="endArrow=classic;html=1;rounded=0;exitX=0.5;exitY=0;exitDx=0;exitDy=0;entryX=0.5;entryY=1;entryDx=0;entryDy=0;" parent="1" source="a9Sl7O8uez9xCAdCzFx1-55" target="TyFQIvKSNbhwDLeUT2OL-2" edge="1">
          <mxGeometry width="50" height="50" relative="1" as="geometry">
            <mxPoint x="280" y="-500" as="sourcePoint" />
            <mxPoint x="330" y="-550" as="targetPoint" />
          </mxGeometry>
        </mxCell>
        <mxCell id="LvPPWwWfilWsMwxd9Nst-13" value="результаты&lt;br&gt;анализов" style="edgeLabel;html=1;align=center;verticalAlign=middle;resizable=0;points=[];" parent="LvPPWwWfilWsMwxd9Nst-11" vertex="1" connectable="0">
          <mxGeometry x="0.0769" y="-1" relative="1" as="geometry">
            <mxPoint as="offset" />
          </mxGeometry>
        </mxCell>
        <mxCell id="LvPPWwWfilWsMwxd9Nst-14" value="" style="endArrow=classic;html=1;rounded=0;exitX=0.75;exitY=0;exitDx=0;exitDy=0;entryX=0.75;entryY=1;entryDx=0;entryDy=0;" parent="1" source="jfRJq12P8PdNFq7zpwv4-1" target="a9Sl7O8uez9xCAdCzFx1-52" edge="1">
          <mxGeometry width="50" height="50" relative="1" as="geometry">
            <mxPoint x="1080" y="-590" as="sourcePoint" />
            <mxPoint x="1080" y="-700" as="targetPoint" />
          </mxGeometry>
        </mxCell>
        <mxCell id="LvPPWwWfilWsMwxd9Nst-15" value="назначение на&amp;nbsp;&lt;br&gt;медикаментозного&lt;br style=&quot;border-color: var(--border-color); padding: 0px; margin: 0px; font-size: 12px; background-color: rgb(251, 251, 251);&quot;&gt;&lt;span style=&quot;font-size: 12px; background-color: rgb(251, 251, 251);&quot;&gt;лечение&lt;/span&gt;" style="edgeLabel;html=1;align=center;verticalAlign=middle;resizable=0;points=[];" parent="LvPPWwWfilWsMwxd9Nst-14" vertex="1" connectable="0">
          <mxGeometry x="-0.1018" y="-1" relative="1" as="geometry">
            <mxPoint x="52" y="-7" as="offset" />
          </mxGeometry>
        </mxCell>
        <mxCell id="LvPPWwWfilWsMwxd9Nst-16" value="данные&amp;nbsp;&lt;br&gt;пациента" style="endArrow=classic;html=1;rounded=0;entryX=0.25;entryY=0;entryDx=0;entryDy=0;" parent="1" target="jfRJq12P8PdNFq7zpwv4-1" edge="1">
          <mxGeometry x="-0.0909" y="-30" width="50" height="50" relative="1" as="geometry">
            <mxPoint x="1000" y="-700" as="sourcePoint" />
            <mxPoint x="1000" y="-592" as="targetPoint" />
            <mxPoint as="offset" />
          </mxGeometry>
        </mxCell>
        <mxCell id="LvPPWwWfilWsMwxd9Nst-17" value="" style="endArrow=classic;html=1;rounded=0;exitX=0.75;exitY=0;exitDx=0;exitDy=0;entryX=0.75;entryY=1;entryDx=0;entryDy=0;" parent="1" source="a9Sl7O8uez9xCAdCzFx1-53" target="jfRJq12P8PdNFq7zpwv4-2" edge="1">
          <mxGeometry width="50" height="50" relative="1" as="geometry">
            <mxPoint x="610" y="-400" as="sourcePoint" />
            <mxPoint x="610" y="-470" as="targetPoint" />
          </mxGeometry>
        </mxCell>
        <mxCell id="LvPPWwWfilWsMwxd9Nst-18" value="назначение на&lt;br&gt;медикаментозное&lt;br&gt;лечение" style="edgeLabel;html=1;align=center;verticalAlign=middle;resizable=0;points=[];" parent="LvPPWwWfilWsMwxd9Nst-17" vertex="1" connectable="0">
          <mxGeometry x="0.0769" y="-1" relative="1" as="geometry">
            <mxPoint x="49" y="-4" as="offset" />
          </mxGeometry>
        </mxCell>
        <mxCell id="LvPPWwWfilWsMwxd9Nst-19" value="" style="endArrow=classic;html=1;rounded=0;exitX=0.25;exitY=1;exitDx=0;exitDy=0;entryX=0.25;entryY=0;entryDx=0;entryDy=0;" parent="1" source="jfRJq12P8PdNFq7zpwv4-2" target="a9Sl7O8uez9xCAdCzFx1-53" edge="1">
          <mxGeometry width="50" height="50" relative="1" as="geometry">
            <mxPoint x="900" y="-480" as="sourcePoint" />
            <mxPoint x="900" y="-380" as="targetPoint" />
          </mxGeometry>
        </mxCell>
        <mxCell id="LvPPWwWfilWsMwxd9Nst-20" value="запрос на&lt;br style=&quot;border-color: var(--border-color);&quot;&gt;медикаментозное&lt;br style=&quot;border-color: var(--border-color);&quot;&gt;лечение" style="edgeLabel;html=1;align=center;verticalAlign=middle;resizable=0;points=[];" parent="LvPPWwWfilWsMwxd9Nst-19" vertex="1" connectable="0">
          <mxGeometry x="-0.1415" relative="1" as="geometry">
            <mxPoint x="-50" y="-1" as="offset" />
          </mxGeometry>
        </mxCell>
        <mxCell id="LvPPWwWfilWsMwxd9Nst-21" value="D1&amp;nbsp; &amp;nbsp; &amp;nbsp;Назначения на обследования" style="html=1;dashed=0;whiteSpace=wrap;shape=mxgraph.dfd.dataStoreID;align=left;spacingLeft=3;points=[[0,0],[0.5,0],[1,0],[0,0.5],[1,0.5],[0,1],[0.5,1],[1,1]];" parent="1" vertex="1">
          <mxGeometry x="540" y="-640" width="220" height="30" as="geometry" />
        </mxCell>
        <mxCell id="LvPPWwWfilWsMwxd9Nst-22" value="D2&amp;nbsp; &amp;nbsp; Результаты анализов" style="html=1;dashed=0;whiteSpace=wrap;shape=mxgraph.dfd.dataStoreID;align=left;spacingLeft=3;points=[[0,0],[0.5,0],[1,0],[0,0.5],[1,0.5],[0,1],[0.5,1],[1,1]];" parent="1" vertex="1">
          <mxGeometry x="540" y="-490" width="220" height="30" as="geometry" />
        </mxCell>
        <mxCell id="LvPPWwWfilWsMwxd9Nst-25" value="назначения на обследования" style="text;html=1;strokeColor=none;fillColor=none;align=center;verticalAlign=middle;whiteSpace=wrap;rounded=0;" parent="1" vertex="1">
          <mxGeometry x="350" y="-650" width="90" height="30" as="geometry" />
        </mxCell>
        <mxCell id="LvPPWwWfilWsMwxd9Nst-26" value="список анализов" style="text;html=1;strokeColor=none;fillColor=none;align=center;verticalAlign=middle;whiteSpace=wrap;rounded=0;" parent="1" vertex="1">
          <mxGeometry x="360" y="-480" width="70" height="30" as="geometry" />
        </mxCell>
        <mxCell id="LvPPWwWfilWsMwxd9Nst-27" value="D5&amp;nbsp; &amp;nbsp; Назначение на медикаментозное лечение" style="html=1;dashed=0;whiteSpace=wrap;shape=mxgraph.dfd.dataStoreID;align=left;spacingLeft=3;points=[[0,0],[0.5,0],[1,0],[0,0.5],[1,0.5],[0,1],[0.5,1],[1,1]];" parent="1" vertex="1">
          <mxGeometry x="1227" y="-548" width="283" height="30" as="geometry" />
        </mxCell>
        <mxCell id="LvPPWwWfilWsMwxd9Nst-28" value="" style="endArrow=classic;startArrow=classic;html=1;rounded=0;exitX=0.998;exitY=0.337;exitDx=0;exitDy=0;entryX=0;entryY=0.5;entryDx=0;entryDy=0;exitPerimeter=0;" parent="1" source="jfRJq12P8PdNFq7zpwv4-2" target="LvPPWwWfilWsMwxd9Nst-27" edge="1">
          <mxGeometry width="50" height="50" relative="1" as="geometry">
            <mxPoint x="1120.96" y="-532.7199999999999" as="sourcePoint" />
            <mxPoint x="1160" y="-534" as="targetPoint" />
          </mxGeometry>
        </mxCell>
        <mxCell id="LvPPWwWfilWsMwxd9Nst-29" value="назначение на медикаментозное лечение" style="text;whiteSpace=wrap;html=1;align=center;" parent="1" vertex="1">
          <mxGeometry x="1131" y="-584" width="90" height="40" as="geometry" />
        </mxCell>
        <mxCell id="gMSUhv1zTKyEMGl24grD-2" style="edgeStyle=orthogonalEdgeStyle;rounded=0;orthogonalLoop=1;jettySize=auto;html=1;entryX=0;entryY=0.5;entryDx=0;entryDy=0;startArrow=classic;startFill=1;" parent="1" source="gMSUhv1zTKyEMGl24grD-1" target="TyFQIvKSNbhwDLeUT2OL-2" edge="1">
          <mxGeometry relative="1" as="geometry">
            <Array as="points">
              <mxPoint y="-305" />
              <mxPoint y="-540" />
            </Array>
          </mxGeometry>
        </mxCell>
        <mxCell id="wJeVf1HVawVVO51wIr1y-12" value="данные&lt;br style=&quot;border-color: var(--border-color);&quot;&gt;пациента" style="edgeLabel;html=1;align=center;verticalAlign=middle;resizable=0;points=[];" parent="gMSUhv1zTKyEMGl24grD-2" connectable="0" vertex="1">
          <mxGeometry x="-0.4374" y="1" relative="1" as="geometry">
            <mxPoint as="offset" />
          </mxGeometry>
        </mxCell>
        <mxCell id="gMSUhv1zTKyEMGl24grD-1" value="D3&amp;nbsp; &amp;nbsp; Пациенты" style="html=1;dashed=0;whiteSpace=wrap;shape=mxgraph.dfd.dataStoreID;align=left;spacingLeft=3;points=[[0,0],[0.5,0],[1,0],[0,0.5],[1,0.5],[0,1],[0.5,1],[1,1]];" parent="1" vertex="1">
          <mxGeometry x="480" y="-320" width="200" height="30" as="geometry" />
        </mxCell>
        <mxCell id="gMSUhv1zTKyEMGl24grD-5" style="edgeStyle=orthogonalEdgeStyle;rounded=0;orthogonalLoop=1;jettySize=auto;html=1;entryX=0.998;entryY=0.102;entryDx=0;entryDy=0;entryPerimeter=0;startArrow=classic;startFill=1;" parent="1" source="gMSUhv1zTKyEMGl24grD-3" target="jfRJq12P8PdNFq7zpwv4-1" edge="1">
          <mxGeometry relative="1" as="geometry" />
        </mxCell>
        <mxCell id="gMSUhv1zTKyEMGl24grD-8" value="данные&lt;br&gt;пациента" style="edgeLabel;html=1;align=center;verticalAlign=middle;resizable=0;points=[];" parent="gMSUhv1zTKyEMGl24grD-5" vertex="1" connectable="0">
          <mxGeometry x="-0.2373" y="-2" relative="1" as="geometry">
            <mxPoint x="-13" y="-13" as="offset" />
          </mxGeometry>
        </mxCell>
        <mxCell id="gMSUhv1zTKyEMGl24grD-3" value="D3&amp;nbsp; &amp;nbsp; Пациенты" style="html=1;dashed=0;whiteSpace=wrap;shape=mxgraph.dfd.dataStoreID;align=left;spacingLeft=3;points=[[0,0],[0.5,0],[1,0],[0,0.5],[1,0.5],[0,1],[0.5,1],[1,1]];" parent="1" vertex="1">
          <mxGeometry x="1227" y="-594" width="283" height="30" as="geometry" />
        </mxCell>
        <mxCell id="gMSUhv1zTKyEMGl24grD-7" style="edgeStyle=orthogonalEdgeStyle;rounded=0;orthogonalLoop=1;jettySize=auto;html=1;entryX=0;entryY=0.25;entryDx=0;entryDy=0;startArrow=classic;startFill=1;exitX=0;exitY=0.5;exitDx=0;exitDy=0;" parent="1" source="gMSUhv1zTKyEMGl24grD-6" target="TyFQIvKSNbhwDLeUT2OL-2" edge="1">
          <mxGeometry relative="1" as="geometry">
            <Array as="points">
              <mxPoint x="-10" y="-245" />
              <mxPoint x="-10" y="-560" />
            </Array>
            <mxPoint x="260" y="-245" as="sourcePoint" />
            <mxPoint x="20" y="-560" as="targetPoint" />
          </mxGeometry>
        </mxCell>
        <mxCell id="wJeVf1HVawVVO51wIr1y-13" value="расписание" style="edgeLabel;html=1;align=center;verticalAlign=middle;resizable=0;points=[];" parent="gMSUhv1zTKyEMGl24grD-7" connectable="0" vertex="1">
          <mxGeometry x="-0.5048" y="-1" relative="1" as="geometry">
            <mxPoint as="offset" />
          </mxGeometry>
        </mxCell>
        <mxCell id="gMSUhv1zTKyEMGl24grD-6" value="D4&amp;nbsp; &amp;nbsp; Расписание" style="html=1;dashed=0;whiteSpace=wrap;shape=mxgraph.dfd.dataStoreID;align=left;spacingLeft=3;points=[[0,0],[0.5,0],[1,0],[0,0.5],[1,0.5],[0,1],[0.5,1],[1,1]];" parent="1" vertex="1">
          <mxGeometry x="480" y="-260" width="200" height="30" as="geometry" />
        </mxCell>
        <mxCell id="wJeVf1HVawVVO51wIr1y-1" value="" style="endArrow=classic;html=1;rounded=0;entryX=0.701;entryY=1.021;entryDx=0;entryDy=0;entryPerimeter=0;exitX=0.701;exitY=0;exitDx=0;exitDy=0;exitPerimeter=0;" parent="1" source="TyFQIvKSNbhwDLeUT2OL-1" target="a9Sl7O8uez9xCAdCzFx1-50" edge="1">
          <mxGeometry width="50" height="50" relative="1" as="geometry">
            <mxPoint x="110" y="-590" as="sourcePoint" />
            <mxPoint x="160" y="-640" as="targetPoint" />
          </mxGeometry>
        </mxCell>
        <mxCell id="wJeVf1HVawVVO51wIr1y-10" value="статус&amp;nbsp;&lt;br style=&quot;border-color: var(--border-color);&quot;&gt;обследования" style="edgeLabel;html=1;align=center;verticalAlign=middle;resizable=0;points=[];" parent="wJeVf1HVawVVO51wIr1y-1" connectable="0" vertex="1">
          <mxGeometry x="0.0788" relative="1" as="geometry">
            <mxPoint as="offset" />
          </mxGeometry>
        </mxCell>
        <mxCell id="wJeVf1HVawVVO51wIr1y-3" value="" style="endArrow=classic;html=1;rounded=0;exitX=0.472;exitY=0.003;exitDx=0;exitDy=0;exitPerimeter=0;entryX=0.474;entryY=1;entryDx=0;entryDy=0;entryPerimeter=0;" parent="1" source="TyFQIvKSNbhwDLeUT2OL-1" target="a9Sl7O8uez9xCAdCzFx1-50" edge="1">
          <mxGeometry width="50" height="50" relative="1" as="geometry">
            <mxPoint x="110" y="-620" as="sourcePoint" />
            <mxPoint x="160" y="-670" as="targetPoint" />
          </mxGeometry>
        </mxCell>
        <mxCell id="wJeVf1HVawVVO51wIr1y-9" value="результаты&lt;br style=&quot;border-color: var(--border-color);&quot;&gt;анализов" style="edgeLabel;html=1;align=center;verticalAlign=middle;resizable=0;points=[];" parent="wJeVf1HVawVVO51wIr1y-3" connectable="0" vertex="1">
          <mxGeometry x="0.0787" y="-1" relative="1" as="geometry">
            <mxPoint as="offset" />
          </mxGeometry>
        </mxCell>
        <mxCell id="wJeVf1HVawVVO51wIr1y-5" value="" style="endArrow=classic;html=1;rounded=0;exitX=0.241;exitY=0;exitDx=0;exitDy=0;exitPerimeter=0;entryX=0.241;entryY=0.995;entryDx=0;entryDy=0;entryPerimeter=0;" parent="1" source="TyFQIvKSNbhwDLeUT2OL-1" target="a9Sl7O8uez9xCAdCzFx1-50" edge="1">
          <mxGeometry width="50" height="50" relative="1" as="geometry">
            <mxPoint x="110" y="-630" as="sourcePoint" />
            <mxPoint x="160" y="-680" as="targetPoint" />
          </mxGeometry>
        </mxCell>
        <mxCell id="wJeVf1HVawVVO51wIr1y-8" value="назначение&amp;nbsp;&lt;br style=&quot;border-color: var(--border-color);&quot;&gt;на&lt;br style=&quot;border-color: var(--border-color);&quot;&gt;обследование" style="edgeLabel;html=1;align=center;verticalAlign=middle;resizable=0;points=[];" parent="wJeVf1HVawVVO51wIr1y-5" connectable="0" vertex="1">
          <mxGeometry x="-0.0206" relative="1" as="geometry">
            <mxPoint x="2" as="offset" />
          </mxGeometry>
        </mxCell>
        <mxCell id="wJeVf1HVawVVO51wIr1y-6" value="" style="endArrow=classic;startArrow=classic;html=1;rounded=0;entryX=0;entryY=0.5;entryDx=0;entryDy=0;exitX=1;exitY=0.172;exitDx=0;exitDy=0;exitPerimeter=0;" parent="1" source="TyFQIvKSNbhwDLeUT2OL-1" target="LvPPWwWfilWsMwxd9Nst-21" edge="1">
          <mxGeometry width="50" height="50" relative="1" as="geometry">
            <mxPoint x="450" y="-550" as="sourcePoint" />
            <mxPoint x="500" y="-600" as="targetPoint" />
          </mxGeometry>
        </mxCell>
        <mxCell id="wJeVf1HVawVVO51wIr1y-7" value="" style="endArrow=classic;startArrow=classic;html=1;rounded=0;entryX=0;entryY=0.5;entryDx=0;entryDy=0;exitX=0.999;exitY=0.915;exitDx=0;exitDy=0;exitPerimeter=0;" parent="1" source="TyFQIvKSNbhwDLeUT2OL-2" target="LvPPWwWfilWsMwxd9Nst-22" edge="1">
          <mxGeometry width="50" height="50" relative="1" as="geometry">
            <mxPoint x="300" y="-470" as="sourcePoint" />
            <mxPoint x="460" y="-400" as="targetPoint" />
          </mxGeometry>
        </mxCell>
        <mxCell id="wJeVf1HVawVVO51wIr1y-14" value="D6&amp;nbsp; &amp;nbsp; Назначение на обследование" style="html=1;dashed=0;whiteSpace=wrap;shape=mxgraph.dfd.dataStoreID;align=left;spacingLeft=3;points=[[0,0],[0.5,0],[1,0],[0,0.5],[1,0.5],[0,1],[0.5,1],[1,1]];" parent="1" vertex="1">
          <mxGeometry x="1227" y="-503" width="283" height="30" as="geometry" />
        </mxCell>
        <mxCell id="wJeVf1HVawVVO51wIr1y-15" value="" style="endArrow=classic;startArrow=classic;html=1;rounded=0;exitX=0.995;exitY=0.901;exitDx=0;exitDy=0;entryX=0;entryY=0.5;entryDx=0;entryDy=0;exitPerimeter=0;" parent="1" source="jfRJq12P8PdNFq7zpwv4-2" target="wJeVf1HVawVVO51wIr1y-14" edge="1">
          <mxGeometry width="50" height="50" relative="1" as="geometry">
            <mxPoint x="1120" y="-488" as="sourcePoint" />
            <mxPoint x="1160" y="-498" as="targetPoint" />
          </mxGeometry>
        </mxCell>
        <mxCell id="wJeVf1HVawVVO51wIr1y-16" value="назначение на обследование" style="text;whiteSpace=wrap;html=1;align=center;" parent="1" vertex="1">
          <mxGeometry x="1132" y="-529" width="90" height="40" as="geometry" />
        </mxCell>
      </root>
    </mxGraphModel>
  </diagram>
</mxfile>
